# xmcd
#
# Track frame offsets: 
#        150
#        16853
#        30466
#        48203
#        73698
#        87677
#        109363
#        126763
#        148439
#        174649
#        195275
#        219369
#        254843
#        276255
#        291367
#
# Disc length: 4389 seconds
#
# Revision: 2
# Processed by: cddbd v1.5.2PL0 Copyright (c) Steve Scherf et al.
# Submitted via: ExactAudioCopy v0.99pb5
#
DISCID=ec11230f
DTITLE=Various Artist - My favourites blues (Blues Rock)  Vol. 5
DYEAR=2002
DGENRE=Blues-Rock
TTITLE0=The Maniac Bullfrgogs - Badlands
TTITLE1=Horsepower - Rock Wiff
TTITLE2=Jeff Healey Band - Which One
TTITLE3=Toto - Baby He's Your Man
TTITLE4=Tony Galla - Desire
TTITLE5=Pecwec Bluesgang - Harley Davidson
TTITLE6=Recydywa - Kansas City
TTITLE7=Rob Tognoni - In The Scheme Of Thines
TTITLE8=Foghat - Luisiana Blues
TTITLE9=Popa Chubby - Don't Let Me Be Misunder Stood
TTITLE10=Jay Gordon - Savage Resurrection
TTITLE11=Amor - Hit So Hard
TTITLE12=Claz Yngstrom - Back On Your Feet
TTITLE13=Jay Hooks - Easy Way Out
TTITLE14=Homewreckers - Early In The Morning
EXTD=
EXTT0=
EXTT1=
EXTT2=
EXTT3=
EXTT4=
EXTT5=
EXTT6=
EXTT7=
EXTT8=
EXTT9=
EXTT10=
EXTT11=
EXTT12=
EXTT13=
EXTT14=
PLAYORDER=
